# xmcd
#
# Track frame offsets:
#	150
#	12885
#	25751
#	38460
#	48319
#	61409
#	76500
#	88542
#	100318
#	115079
#	129227
#	143625
#	155138
#	169796
#	182375
#	196286
#	209735
#	224611
#	239838
#	251339
#
# Disc length: 3529 seconds
#
# Revision: 1634036838
# Processed by: cddbd v1.5.2PL0 Copyright (c) Steve Scherf et al.
# Submitted via: EZCDAudioConverter 8.0.5.1
#
DISCID=090dc714
DTITLE=Various Artist - Blues Radio [CD1)
DYEAR=2017
DGENRE=
TTITLE0=B.B. King - Everyday I Have The Blues
TTITLE1=Muddy Waters - I Just Want To Make Love To You
TTITLE2=Aretha Franklin - Today I Sing The Blues
TTITLE3=John Lee Hooker - Dimples
TTITLE4=Ray Charles - Baby, Won't You Please Come Home
TTITLE5=Bessie Smith - St. Louis Blues
TTITLE6=Robert Johnson - Cross Road Blues
TTITLE7=Fats Domino - The Fat Man
TTITLE8=Billie Holiday - Lover Man
TTITLE9=John Lee Hooker - Boogie Chillen
TTITLE10=Mildred Bailey - Rockin' Chair
TTITLE11=Smiley Lewis - I Hear You Knockin' 
TTITLE12=Victoria Spivey - Black Snake Blues
TTITLE13=Mississippi John Hurt - Candy Man Blues
TTITLE14=Albilina Jones - Evil Gal Blues
TTITLE15=Bobby 'Blue' Band - Farther Up The Road
TTITLE16=Ma Rainey - Booze And Blues
TTITLE17=Ethel Waters - Am I Blue?
TTITLE18=Leadbelly - Rock Island Line
TTITLE19=Lucille Bogan - Baking Powder Blues
EXTD=
EXTT0=
EXTT1=
EXTT2=
EXTT3=
EXTT4=
EXTT5=
EXTT6=
EXTT7=
EXTT8=
EXTT9=
EXTT10=
EXTT11=
EXTT12=
EXTT13=
EXTT14=
EXTT15=
EXTT16=
EXTT17=
EXTT18=
EXTT19=
PLAYORDER=
